<svg xmlns="http://www.w3.org/2000/svg" xmlns:xlink="http://www.w3.org/1999/xlink" width="500" zoomAndPan="magnify" viewBox="0 0 375 374.999991" height="500" preserveAspectRatio="xMidYMid meet" version="1.0"><defs><g/><clipPath id="234d2dc92e"><path d="M 155 145 L 190 145 L 190 198.675781 L 155 198.675781 Z M 155 145 " clip-rule="nonzero"/></clipPath><clipPath id="54a28ee150"><path d="M 128.839844 126.675781 L 245.839844 126.675781 L 245.839844 198.675781 L 128.839844 198.675781 Z M 128.839844 126.675781 " clip-rule="nonzero"/></clipPath></defs><g fill="#333333" fill-opacity="1"><g transform="translate(74.937367, 233.972608)"><g><path d="M 19.71875 -7.179688 C 19.71875 -9.003906 19.261719 -10.5625 18.390625 -11.777344 C 17.476562 -12.996094 16.261719 -13.832031 14.78125 -14.25 C 15.652344 -14.628906 16.414062 -15.3125 16.984375 -16.335938 C 17.25 -16.792969 17.441406 -17.25 17.589844 -17.742188 C 17.742188 -18.238281 17.820312 -18.921875 17.820312 -19.796875 C 17.820312 -20.632812 17.589844 -21.503906 17.210938 -22.339844 C 16.070312 -24.660156 13.601562 -25.835938 9.839844 -25.835938 L 2.851562 -25.835938 L 2.851562 0 L 10.753906 0 C 13.375 0 15.464844 -0.570312 17.058594 -1.785156 C 17.859375 -2.394531 18.503906 -3.191406 18.996094 -4.179688 C 19.453125 -5.128906 19.71875 -6.117188 19.71875 -7.179688 Z M 15.160156 -19.378906 C 15.160156 -17.972656 14.742188 -16.945312 13.90625 -16.261719 C 13.070312 -15.578125 11.96875 -15.234375 10.601562 -15.234375 L 5.507812 -15.234375 L 5.507812 -23.289062 L 9.839844 -23.289062 C 13.375 -23.289062 15.160156 -21.960938 15.160156 -19.378906 Z M 17.058594 -7.714844 C 17.058594 -6.15625 16.527344 -4.902344 15.464844 -3.953125 C 14.4375 -3 13.109375 -2.546875 11.511719 -2.546875 L 5.507812 -2.546875 L 5.507812 -12.578125 L 11.929688 -12.578125 C 13.261719 -12.578125 14.4375 -12.121094 15.464844 -11.207031 C 15.917969 -10.789062 16.300781 -10.296875 16.605469 -9.726562 C 16.90625 -9.117188 17.058594 -8.472656 17.058594 -7.714844 Z M 17.058594 -7.714844 "/></g></g></g><g fill="#333333" fill-opacity="1"><g transform="translate(103.015173, 233.972608)"><g><path d="M 25.609375 -12.996094 C 25.609375 -10.03125 24.542969 -7.523438 22.492188 -5.472656 C 20.402344 -3.382812 17.894531 -2.355469 14.96875 -2.355469 C 12.042969 -2.355469 9.535156 -3.382812 7.484375 -5.472656 C 5.394531 -7.523438 4.371094 -10.03125 4.371094 -12.996094 C 4.371094 -15.882812 5.394531 -18.390625 7.484375 -20.480469 C 9.535156 -22.53125 12.042969 -23.59375 14.96875 -23.59375 C 17.894531 -23.59375 20.402344 -22.53125 22.492188 -20.480469 C 24.542969 -18.390625 25.609375 -15.882812 25.609375 -12.996094 Z M 28.269531 -12.996094 C 28.269531 -14.816406 27.886719 -16.527344 27.203125 -18.160156 C 26.519531 -19.757812 25.570312 -21.164062 24.355469 -22.378906 C 23.140625 -23.558594 21.734375 -24.507812 20.136719 -25.191406 C 18.503906 -25.875 16.792969 -26.253906 14.96875 -26.253906 C 13.144531 -26.253906 11.398438 -25.875 9.800781 -25.191406 C 8.207031 -24.507812 6.800781 -23.558594 5.585938 -22.378906 C 4.371094 -21.164062 3.417969 -19.757812 2.734375 -18.160156 C 2.050781 -16.527344 1.710938 -14.816406 1.710938 -12.996094 C 1.710938 -11.171875 2.050781 -9.421875 2.734375 -7.828125 C 3.417969 -6.191406 4.371094 -4.789062 5.585938 -3.570312 C 6.800781 -2.355469 8.207031 -1.40625 9.800781 -0.722656 C 11.398438 -0.0390625 13.144531 0.304688 14.96875 0.304688 C 16.792969 0.304688 18.503906 -0.0390625 20.136719 -0.722656 C 21.734375 -1.40625 23.140625 -2.355469 24.355469 -3.570312 C 25.570312 -4.789062 26.519531 -6.191406 27.203125 -7.828125 C 27.886719 -9.421875 28.269531 -11.171875 28.269531 -12.996094 Z M 28.269531 -12.996094 "/></g></g></g><g fill="#333333" fill-opacity="1"><g transform="translate(140.591036, 233.972608)"><g><path d="M 5.507812 -12.765625 L 5.507812 -23.289062 L 11.511719 -23.289062 C 13.070312 -23.289062 14.324219 -22.796875 15.273438 -21.808594 C 16.1875 -20.820312 16.679688 -19.605469 16.679688 -18.085938 C 16.679688 -16.566406 16.1875 -15.3125 15.199219 -14.285156 C 14.210938 -13.261719 12.996094 -12.765625 11.511719 -12.765625 Z M 19.339844 -18.046875 C 19.339844 -20.25 18.503906 -22.152344 16.90625 -23.632812 C 15.351562 -25.078125 13.414062 -25.835938 11.132812 -25.835938 L 2.851562 -25.835938 L 2.851562 0 L 5.507812 0 L 5.507812 -10.21875 L 8.585938 -10.21875 L 16.1875 0 L 19.757812 0 L 11.777344 -10.21875 C 13.792969 -10.335938 15.503906 -11.054688 16.90625 -12.386719 C 18.503906 -13.867188 19.339844 -15.769531 19.339844 -18.046875 Z M 19.339844 -18.046875 "/></g></g></g><g fill="#333333" fill-opacity="1"><g transform="translate(168.858804, 233.972608)"><g><path d="M 26.558594 -7.902344 L 23.632812 -7.902344 C 22.722656 -6.230469 21.46875 -4.863281 19.871094 -3.875 C 18.277344 -2.851562 16.488281 -2.355469 14.589844 -2.355469 C 11.742188 -2.355469 9.308594 -3.382812 7.296875 -5.507812 C 5.320312 -7.523438 4.371094 -9.992188 4.371094 -12.878906 C 4.371094 -15.769531 5.320312 -18.238281 7.296875 -20.289062 C 8.207031 -21.238281 9.308594 -22 10.5625 -22.570312 C 11.777344 -23.140625 12.996094 -23.441406 14.210938 -23.441406 C 15.386719 -23.441406 16.414062 -23.289062 17.324219 -23.023438 C 20.097656 -22.1875 22.1875 -20.515625 23.59375 -17.972656 L 26.519531 -17.972656 C 25.53125 -20.402344 23.976562 -22.378906 21.808594 -23.898438 C 19.605469 -25.417969 17.210938 -26.179688 14.589844 -26.179688 C 10.980469 -26.179688 7.941406 -24.847656 5.433594 -22.226562 C 4.253906 -21.011719 3.34375 -19.566406 2.699219 -17.972656 C 2.015625 -16.375 1.710938 -14.667969 1.710938 -12.878906 C 1.710938 -9.234375 2.925781 -6.15625 5.433594 -3.570312 C 7.941406 -0.910156 10.980469 0.378906 14.589844 0.378906 C 17.210938 0.378906 19.605469 -0.378906 21.847656 -1.898438 C 24.011719 -3.417969 25.570312 -5.394531 26.558594 -7.902344 Z M 26.558594 -7.902344 "/></g></g></g><g fill="#333333" fill-opacity="1"><g transform="translate(204.155128, 233.972608)"><g><path d="M 18.199219 0 L 18.199219 -2.46875 L 5.507812 -2.46875 L 5.507812 -11.664062 L 17.820312 -11.664062 L 17.820312 -14.171875 L 5.507812 -14.171875 L 5.507812 -23.367188 L 18.199219 -23.367188 L 18.199219 -25.835938 L 2.851562 -25.835938 L 2.851562 0 Z M 18.199219 0 "/></g></g></g><g fill="#333333" fill-opacity="1"><g transform="translate(232.802813, 233.972608)"><g><path d="M 5.507812 -2.660156 L 5.507812 -25.835938 L 2.851562 -25.835938 L 2.851562 0 L 14.742188 0 L 14.742188 -2.660156 Z M 5.507812 -2.660156 "/></g></g></g><g fill="#333333" fill-opacity="1"><g transform="translate(255.903637, 233.972608)"><g><path d="M 5.507812 -2.660156 L 5.507812 -25.835938 L 2.851562 -25.835938 L 2.851562 0 L 14.742188 0 L 14.742188 -2.660156 Z M 5.507812 -2.660156 "/></g></g></g><g fill="#333333" fill-opacity="1"><g transform="translate(279.004462, 233.972608)"><g><path d="M 18.199219 0 L 18.199219 -2.46875 L 5.507812 -2.46875 L 5.507812 -11.664062 L 17.820312 -11.664062 L 17.820312 -14.171875 L 5.507812 -14.171875 L 5.507812 -23.367188 L 18.199219 -23.367188 L 18.199219 -25.835938 L 2.851562 -25.835938 L 2.851562 0 Z M 18.199219 0 "/></g></g></g><g clip-path="url(#234d2dc92e)"><path fill="#cad0d9" d="M 187.785156 198.113281 L 156.921875 198.113281 C 156.207031 198.113281 155.628906 197.429688 155.628906 196.589844 L 155.628906 147.257812 C 155.628906 146.417969 156.207031 145.738281 156.921875 145.738281 L 187.785156 145.738281 C 188.5 145.738281 189.082031 146.417969 189.082031 147.257812 L 189.082031 196.589844 C 189.082031 197.429688 188.5 198.113281 187.785156 198.113281 Z M 187.785156 198.113281 " fill-opacity="1" fill-rule="nonzero"/></g><g clip-path="url(#54a28ee150)"><path fill="#333333" d="M 244.894531 198.675781 L 198.347656 198.675781 C 197.820312 198.675781 197.394531 198.25 197.394531 197.722656 L 197.394531 191.128906 L 173.324219 191.128906 C 172.796875 191.128906 172.371094 190.703125 172.371094 190.175781 L 172.371094 162.347656 L 146.519531 174.667969 L 146.519531 197.441406 C 146.519531 197.96875 146.09375 198.394531 145.566406 198.394531 L 129.792969 198.394531 C 129.269531 198.394531 128.839844 197.96875 128.839844 197.441406 C 128.839844 196.914062 129.269531 196.484375 129.792969 196.484375 L 144.613281 196.484375 L 144.613281 174.066406 C 144.613281 173.695312 144.824219 173.359375 145.15625 173.203125 L 172.371094 160.230469 L 172.371094 127.628906 C 172.371094 127.101562 172.796875 126.675781 173.324219 126.675781 L 197.929688 126.675781 C 198.457031 126.675781 198.882812 127.101562 198.882812 127.628906 L 198.882812 149.109375 C 198.882812 149.480469 198.671875 149.816406 198.339844 149.972656 L 174.28125 161.441406 L 174.28125 189.21875 L 197.394531 189.21875 L 197.394531 154.421875 C 197.394531 154.074219 197.582031 153.753906 197.886719 153.585938 C 198.1875 153.417969 198.558594 153.425781 198.851562 153.609375 L 222.722656 168.515625 C 223.003906 168.691406 223.171875 168.996094 223.171875 169.328125 L 223.171875 190.175781 C 223.171875 190.703125 222.746094 191.128906 222.21875 191.128906 L 199.300781 191.128906 L 199.300781 196.765625 L 244.894531 196.765625 C 245.421875 196.765625 245.851562 197.195312 245.851562 197.722656 C 245.851562 198.25 245.421875 198.675781 244.894531 198.675781 Z M 199.300781 189.21875 L 221.265625 189.21875 L 221.265625 169.855469 L 199.300781 156.144531 Z M 174.28125 128.585938 L 174.28125 159.324219 L 196.976562 148.507812 L 196.976562 128.585938 Z M 174.28125 128.585938 " fill-opacity="1" fill-rule="nonzero"/></g><g fill="#333333" fill-opacity="1"><g transform="translate(130.703782, 253.377303)"><g><path d="M 2.175781 -5.039062 L 2.175781 -9.195312 L 4.546875 -9.195312 C 5.160156 -9.195312 5.65625 -9 6.03125 -8.609375 C 6.390625 -8.21875 6.585938 -7.738281 6.585938 -7.140625 C 6.585938 -6.539062 6.390625 -6.046875 6 -5.640625 C 5.609375 -5.234375 5.128906 -5.039062 4.546875 -5.039062 Z M 7.636719 -7.125 C 7.636719 -7.996094 7.304688 -8.746094 6.675781 -9.328125 C 6.058594 -9.898438 5.296875 -10.199219 4.394531 -10.199219 L 1.125 -10.199219 L 1.125 0 L 2.175781 0 L 2.175781 -4.035156 L 3.390625 -4.035156 L 6.390625 0 L 7.800781 0 L 4.648438 -4.035156 C 5.445312 -4.078125 6.121094 -4.363281 6.675781 -4.890625 C 7.304688 -5.476562 7.636719 -6.226562 7.636719 -7.125 Z M 7.636719 -7.125 "/></g></g></g><g fill="#333333" fill-opacity="1"><g transform="translate(141.863789, 253.377303)"><g><path d="M 7.183594 0 L 7.183594 -0.976562 L 2.175781 -0.976562 L 2.175781 -4.605469 L 7.035156 -4.605469 L 7.035156 -5.59375 L 2.175781 -5.59375 L 2.175781 -9.226562 L 7.183594 -9.226562 L 7.183594 -10.199219 L 1.125 -10.199219 L 1.125 0 Z M 7.183594 0 "/></g></g></g><g fill="#333333" fill-opacity="1"><g transform="translate(153.173793, 253.377303)"><g><path d="M 2.773438 -3.75 L 4.636719 -8.445312 L 6.480469 -3.75 Z M 9.105469 0 L 4.636719 -10.90625 L 0.148438 0 L 1.289062 0 L 2.386719 -2.773438 L 6.871094 -2.773438 L 7.964844 0 Z M 9.105469 0 "/></g></g></g><g fill="#333333" fill-opacity="1"><g transform="translate(165.428794, 253.377303)"><g><path d="M 2.175781 -1.050781 L 2.175781 -10.199219 L 1.125 -10.199219 L 1.125 0 L 5.820312 0 L 5.820312 -1.050781 Z M 2.175781 -1.050781 "/></g></g></g><g fill="#333333" fill-opacity="1"><g transform="translate(174.548799, 253.377303)"><g/></g></g><g fill="#333333" fill-opacity="1"><g transform="translate(181.598808, 253.377303)"><g><path d="M 7.183594 0 L 7.183594 -0.976562 L 2.175781 -0.976562 L 2.175781 -4.605469 L 7.035156 -4.605469 L 7.035156 -5.59375 L 2.175781 -5.59375 L 2.175781 -9.226562 L 7.183594 -9.226562 L 7.183594 -10.199219 L 1.125 -10.199219 L 1.125 0 Z M 7.183594 0 "/></g></g></g><g fill="#333333" fill-opacity="1"><g transform="translate(192.908814, 253.377303)"><g><path d="M 3.945312 -4.800781 C 5.265625 -4.484375 6.164062 -4.140625 6.644531 -3.75 C 6.976562 -3.480469 7.140625 -3.136719 7.140625 -2.714844 C 7.140625 -2.296875 7.050781 -1.949219 6.871094 -1.710938 C 6.421875 -1.078125 5.609375 -0.765625 4.46875 -0.765625 C 2.878906 -0.765625 1.980469 -1.304688 1.785156 -2.386719 L 0.554688 -2.386719 C 0.914062 -0.660156 2.21875 0.195312 4.46875 0.195312 C 5.476562 0.195312 6.316406 -0.015625 6.988281 -0.464844 C 7.800781 -0.988281 8.21875 -1.769531 8.21875 -2.789062 C 8.21875 -3.628906 7.890625 -4.273438 7.230469 -4.726562 C 6.765625 -5.054688 6.015625 -5.355469 4.980469 -5.625 C 3.929688 -5.894531 3.253906 -6.121094 2.941406 -6.285156 C 2.25 -6.628906 1.90625 -7.109375 1.921875 -7.738281 C 1.921875 -8.070312 1.980469 -8.355469 2.128906 -8.566406 C 2.519531 -9.148438 3.210938 -9.449219 4.199219 -9.449219 C 5.59375 -9.449219 6.390625 -9 6.601562 -8.128906 L 7.738281 -8.128906 C 7.363281 -9.601562 6.179688 -10.351562 4.199219 -10.351562 C 3.300781 -10.351562 2.503906 -10.109375 1.84375 -9.628906 C 1.171875 -9.148438 0.824219 -8.445312 0.824219 -7.484375 C 0.824219 -6.179688 1.875 -5.28125 3.945312 -4.800781 Z M 3.945312 -4.800781 "/></g></g></g><g fill="#333333" fill-opacity="1"><g transform="translate(204.518827, 253.377303)"><g><path d="M 0.300781 -9.253906 L 2.773438 -9.253906 L 2.773438 -0.03125 L 3.824219 -0.03125 L 3.824219 -9.253906 L 6.300781 -9.253906 L 6.300781 -10.230469 L 0.300781 -10.230469 Z M 0.300781 -9.253906 "/></g></g></g><g fill="#333333" fill-opacity="1"><g transform="translate(214.118835, 253.377303)"><g><path d="M 2.773438 -3.75 L 4.636719 -8.445312 L 6.480469 -3.75 Z M 9.105469 0 L 4.636719 -10.90625 L 0.148438 0 L 1.289062 0 L 2.386719 -2.773438 L 6.871094 -2.773438 L 7.964844 0 Z M 9.105469 0 "/></g></g></g><g fill="#333333" fill-opacity="1"><g transform="translate(226.373831, 253.377303)"><g><path d="M 0.300781 -9.253906 L 2.773438 -9.253906 L 2.773438 -0.03125 L 3.824219 -0.03125 L 3.824219 -9.253906 L 6.300781 -9.253906 L 6.300781 -10.230469 L 0.300781 -10.230469 Z M 0.300781 -9.253906 "/></g></g></g><g fill="#333333" fill-opacity="1"><g transform="translate(235.973833, 253.377303)"><g><path d="M 7.183594 0 L 7.183594 -0.976562 L 2.175781 -0.976562 L 2.175781 -4.605469 L 7.035156 -4.605469 L 7.035156 -5.59375 L 2.175781 -5.59375 L 2.175781 -9.226562 L 7.183594 -9.226562 L 7.183594 -10.199219 L 1.125 -10.199219 L 1.125 0 Z M 7.183594 0 "/></g></g></g></svg>